Coordinates
version=1
nRows=11
nColumns=63
inDegrees=yes

Units are S.I. units (second, meters, Newtons, ...)
If the header above contains a line with 'inDegrees', this indicates whether rotational values are in degrees (yes) or radians (no).

endheader
time	pelvis_tilt	pelvis_list	pelvis_rotation	pelvis_tx	pelvis_ty	pelvis_tz	hip_flexion_r	hip_adduction_r	hip_rotation_r	knee_angle_r	knee_angle_r_beta	ankle_angle_r	subtalar_angle_r	mtp_angle_r	hip_flexion_l	hip_adduction_l	hip_rotation_l	knee_angle_l	knee_angle_l_beta	ankle_angle_l	subtalar_angle_l	mtp_angle_l	L5_S1_Flex_Ext	L5_S1_Lat_Bending	L5_S1_axial_rotation	L4_L5_Flex_Ext	L4_L5_Lat_Bending	L4_L5_axial_rotation	L3_L4_Flex_Ext	L3_L4_Lat_Bending	L3_L4_axial_rotation	L2_L3_Flex_Ext	L2_L3_Lat_Bending	L2_L3_axial_rotation	L1_L2_Flex_Ext	L1_L2_Lat_Bending	L1_L2_axial_rotation	L1_T12_Flex_Ext	L1_T12_Lat_Bending	L1_T12_axial_rotation	Abs_r3	Abs_r2	Abs_r1	Abs_t1	Abs_t2	neck_flexion	neck_bending	neck_rotation	arm_flex_r	arm_add_r	arm_rot_r	elbow_flex_r	pro_sup_r	wrist_flex_r	wrist_dev_r	arm_flex_l	arm_add_l	arm_rot_l	elbow_flex_l	pro_sup_l	wrist_flex_l	wrist_dev_l
5.325000	6.332788	-5.011155	93.465994	0.209804	0.986000	0.562192	-1.370359	2.265846	-1.122291	4.439424	0.077483	23.848164	8.308788	0.000000	-0.497276	-2.205584	-0.088478	5.207973	0.090896	24.129853	-4.856808	0.000000	-0.008287	0.327123	-0.826113	-0.015390	0.435073	-0.877745	-0.013615	0.795367	-0.877745	-0.009471	0.795367	-0.722849	-0.007696	0.667069	-0.671217	-0.004735	0.506713	-0.619585	-0.059195	3.700480	-4.594592	0.000000	0.000000	13.234818	-2.041119	4.278731	15.017424	-8.571142	71.181768	43.552895	63.847793	2.134657	8.841157	9.865394	-4.517213	58.479214	40.298342	64.463064	0.122973	11.148706
5.350000	6.326934	-4.963935	93.451983	0.209866	0.985991	0.562203	-1.408146	2.261643	-1.277708	4.419257	0.077131	23.845322	8.577315	0.000000	-0.550851	-2.216060	-0.227626	5.177871	0.090371	24.107608	-4.686030	0.000000	-0.009343	0.324696	-0.817740	-0.017350	0.431846	-0.868849	-0.015349	0.789466	-0.868849	-0.010678	0.789466	-0.715523	-0.008676	0.662120	-0.664414	-0.005338	0.502954	-0.613305	-0.066735	3.673026	-4.548027	0.000000	0.000000	13.274801	-2.221206	4.065562	15.166491	-8.600133	71.612135	43.555722	64.182905	2.088143	8.736609	9.922390	-4.575415	58.593276	40.365464	64.794274	0.053553	11.156657
5.375000	6.338518	-4.952793	93.435790	0.209910	0.985942	0.562218	-1.402982	2.269056	-1.482461	4.407586	0.076927	23.863234	8.923109	0.000000	-0.564039	-2.243327	-0.395540	5.151131	0.089904	24.095674	-4.475357	0.000000	-0.009024	0.324654	-0.810240	-0.016759	0.431790	-0.860880	-0.014826	0.789363	-0.860880	-0.010314	0.789363	-0.708960	-0.008380	0.662034	-0.658320	-0.005156	0.502889	-0.607680	-0.064458	3.672548	-4.506311	0.000000	0.000000	13.418488	-2.373663	3.922986	15.229187	-8.642438	71.805232	43.603711	64.707364	2.103477	8.672177	9.944919	-4.622830	58.568878	40.440229	65.632951	0.136357	11.186441
5.400000	6.366964	-4.959355	93.422096	0.209930	0.985884	0.562240	-1.380349	2.289088	-1.731198	4.393033	0.076673	23.897393	9.342457	0.000000	-0.558679	-2.285835	-0.569681	5.116655	0.089302	24.088276	-4.252298	0.000000	-0.009849	0.326971	-0.806479	-0.018291	0.434872	-0.856884	-0.016181	0.794998	-0.856884	-0.011257	0.794998	-0.705669	-0.009146	0.666760	-0.655264	-0.005628	0.506479	-0.604859	-0.070352	3.698767	-4.485394	0.000000	0.000000	13.641500	-2.515975	3.838569	15.289271	-8.699506	72.008889	43.666499	65.003633	2.113245	8.637893	9.925852	-4.654483	58.412385	40.533247	66.740912	0.304199	11.325659
5.425000	6.409469	-4.974989	93.408023	0.209928	0.985824	0.562302	-1.340220	2.317304	-2.048697	4.392131	0.076657	23.960829	9.862766	0.000000	-0.540518	-2.341124	-0.738828	5.075344	0.088581	24.097342	-4.017010	0.000000	-0.013769	0.331308	-0.799771	-0.025571	0.440639	-0.849757	-0.022622	0.805541	-0.849757	-0.015737	0.805541	-0.699800	-0.012786	0.675602	-0.649814	-0.007868	0.513195	-0.599828	-0.098354	3.747817	-4.448088	0.000000	0.000000	13.959136	-2.674930	3.751251	15.295455	-8.774955	72.025821	43.756422	65.491822	2.185750	8.690174	9.922572	-4.662966	58.252421	40.600108	68.068959	0.615939	11.489174
5.450000	6.464792	-5.010528	93.400351	0.209906	0.985741	0.562395	-1.272497	2.353132	-2.429130	4.404482	0.076873	24.039831	10.461765	0.000000	-0.497118	-2.405696	-0.858672	5.029161	0.087775	24.098227	-3.829119	0.000000	-0.017861	0.337179	-0.792183	-0.033171	0.448449	-0.841695	-0.029345	0.819818	-0.841695	-0.020414	0.819818	-0.693160	-0.016586	0.687576	-0.643649	-0.010206	0.522291	-0.594138	-0.127583	3.814242	-4.405886	0.000000	0.000000	14.344114	-2.843977	3.640747	15.253208	-8.859573	71.896656	43.848926	66.103451	2.309908	8.811457	9.920888	-4.646297	58.065719	40.636008	69.560170	1.071684	11.685683
5.475000	6.524705	-5.032899	93.390588	0.209873	0.985686	0.562518	-1.218549	2.394971	-2.772871	4.419519	0.077135	24.105800	11.002774	0.000000	-0.467253	-2.474985	-1.006506	4.980712	0.086930	24.096644	-3.612776	0.000000	-0.026535	0.343791	-0.788758	-0.049279	0.457242	-0.838056	-0.043595	0.835894	-0.838056	-0.030327	0.835894	-0.690163	-0.024641	0.701059	-0.640866	-0.015162	0.532532	-0.591569	-0.189540	3.889034	-4.386836	0.000000	0.000000	14.755823	-3.016887	3.523093	15.250197	-8.945767	71.857058	43.917236	66.618929	2.422547	8.955692	9.908121	-4.614405	57.821551	40.649476	70.995095	1.637262	11.929808
5.500000	6.591991	-5.059412	93.381537	0.209833	0.985645	0.562673	-1.157458	2.442590	-3.102737	4.443722	0.077558	24.157985	11.516677	0.000000	-0.424106	-2.553672	-1.203134	4.954359	0.086470	24.105338	-3.336594	0.000000	-0.035514	0.351481	-0.786470	-0.065954	0.467470	-0.835624	-0.058346	0.854591	-0.835624	-0.040589	0.854591	-0.688161	-0.032979	0.716740	-0.639007	-0.020293	0.544444	-0.589852	-0.253675	3.976022	-4.374109	0.000000	0.000000	15.150377	-3.183568	3.398181	15.217338	-9.026954	71.717390	43.984889	67.130040	2.556631	9.224995	9.897858	-4.573797	57.613078	40.643654	72.398053	2.212446	12.138343
5.525000	6.665139	-5.070813	93.365932	0.209785	0.985655	0.562858	-1.112521	2.495938	-3.397693	4.471034	0.078034	24.190429	11.990238	0.000000	-0.398653	-2.637383	-1.385184	4.930075	0.086046	24.092550	-3.096979	0.000000	-0.046853	0.359971	-0.787004	-0.087010	0.478761	-0.836191	-0.076974	0.875233	-0.836191	-0.053548	0.875233	-0.688628	-0.043507	0.734053	-0.639440	-0.026772	0.557595	-0.590253	-0.334664	4.072062	-4.377078	0.000000	0.000000	15.487516	-3.325247	3.288057	15.183580	-9.096644	71.554672	44.044656	67.496143	2.695742	9.597274	9.887387	-4.529110	57.424592	40.619854	73.726673	2.797111	12.322783
5.550000	6.746542	-5.075223	93.357280	0.209703	0.985707	0.563068	-1.070716	2.554273	-3.715093	4.511902	0.078748	24.218961	12.474921	0.000000	-0.370626	-2.730278	-1.595259	4.927249	0.085997	24.091608	-2.820664	0.000000	-0.058330	0.369959	-0.797340	-0.108325	0.492045	-0.847174	-0.095830	0.899518	-0.847174	-0.066665	0.899518	-0.697673	-0.054165	0.754420	-0.647839	-0.033330	0.573066	-0.598005	-0.416645	4.185049	-4.434568	0.000000	0.000000	15.745216	-3.416311	3.268467	15.140115	-9.143827	71.327598	44.099456	68.011792	2.899156	10.007691	9.846842	-4.487178	57.209784	40.596460	74.974286	3.331760	12.428598
5.575000	6.829570	-5.067598	93.360922	0.209592	0.985816	0.563282	-1.052847	2.620557	-3.922839	4.533497	0.079124	24.210212	12.790071	0.000000	-0.355046	-2.822275	-1.754429	4.923830	0.085937	24.067217	-2.609628	0.000000	-0.069591	0.380210	-0.818261	-0.129238	0.505679	-0.869402	-0.114332	0.924443	-0.869402	-0.079536	0.924443	-0.715978	-0.064622	0.775324	-0.664837	-0.039764	0.588945	-0.613696	-0.497084	4.301012	-4.550923	0.000000	0.000000	15.899034	-3.446502	3.329614	15.097361	-9.161355	71.097044	44.121216	68.615123	3.117331	10.379093	9.794467	-4.460418	57.038954	40.575752	76.053311	3.780108	12.495963
